{"title":"Z-Nation - Season 02 - Episode 02 - White Light ~ 720P || AAC ||","uid":12569744,"size":629309252,"categoryP":"video","categoryS":"tv_shows","magnet":"?xt=urn:btih:a1599bf5811898e9267d8ec5930bcb6d416ec119&amp;dn=Z-Nation+-+Season+02+-+Episode+02+-+White+Light+%7E+720P+%7C%7C+AAC+%7C%7C&amp;tr=udp%3A%2F%2Ftracker.leechers-paradise.org%3A6969&amp;tr=udp%3A%2F%2Fzer0day.ch%3A1337&amp;tr=udp%3A%2F%2Fopen.demonii.com%3A1337&amp;tr=udp%3A%2F%2Ftracker.coppersurfer.tk%3A6969&amp;tr=udp%3A%2F%2Fexodus.desync.com%3A6969","seeders":0,"leechers":1,"uploader":"Ecelon","files":1,"time":1444834627,"description":"General\nComplete name                    : Z-Nation - Season 02 - Episode 02 - White Light.mp4\nFormat                           : MPEG-4\nFormat profile                   : Base Media / Version 2\nCodec ID                         : mp42\nFile size                        : 600 MiB\nDuration                         : 42mn 34s\nOverall bit rate                 : 1 971 Kbps\nEncoded date                     : UTC 2015-10-14 10:34:28\nTagged date                      : UTC 2015-10-14 11:45:18\nWriting application              : HandBrake 0.9.5 2011010300\n\nVideo\nID                               : 1\nFormat                           : AVC\nFormat/Info                      : Advanced Video Codec\nFormat profile                   :   \nFormat settings, CABAC           : Yes\nFormat settings, ReFrames        : 4 frames\nCodec ID                         : avc1\nCodec ID/Info                    : Advanced Video Coding\nDuration                         : 42mn 34s\nBit rate mode                    : Variable\nBit rate                         : 1 581 Kbps\nWidth                            : 1 280 pixels\nHeight                           : 720 pixels\nDisplay aspect ratio             : 16:9\nFrame rate mode                  : Variable\nFrame rate                       : 23.976 fps\nMinimum frame rate               : 23.810 fps\nMaximum frame rate               : 1 000.000 fps\nColor space                      : YUV\nChroma subsampling               : 4:2:0\nBit depth                        : 8 bits\nScan type                        : Progressive\nBits/(Pixel*Frame)               : 0.072\nStream size                      : 481 MiB (80%)\nWriting library                  : x264 core 112\nEncoding settings                : cabac=1 / ref=2 / deblock=1:0:0 / analyse=0x1:0x111 / me=hex / subme=6 / psy=1 / psy_rd=1.00:0.00 / mixed_ref=0 / me_range=16 / chroma_me=1 / trellis=0 / 8x8dct=0 / cqm=0 / deadzone=21,11 / fast_pskip=1 / chroma_qp_offset=-2 / threads=6 / sliced_threads=0 / nr=0 / decimate=1 / interlaced=0 / constrained_intra=0 / bframes=2 / b_pyramid=2 / b_adapt=1 / b_bias=0 / direct=1 / weightb=0 / open_gop=0 / weightp=2 / keyint=240 / keyint_min=23 / scenecut=40 / intra_refresh=0 / rc_lookahead=40 / rc=2pass / mbtree=1 / bitrate=1581 / ratetol=1.0 / qcomp=0.60 / qpmin=3 / qpmax=51 / qpstep=4 / cplxblur=20.0 / qblur=0.5 / ip_ratio=1.40 / aq=1:1.00\nEncoded date                     : UTC 2015-10-14 10:34:28\nTagged date                      : UTC 2015-10-14 11:45:18\nColor primaries                  : BT.709-5, BT.1361, IEC 61966-2-4, SMPTE RP177\nTransfer characteristics         : BT.709-5, BT.1361\nMatrix coefficients              : BT.709-5, BT.1361, IEC 61966-2-4 709, SMPTE RP177\n\nAudio\nID                               : 2\nFormat                           : AAC\nFormat/Info                      : Advanced Audio Codec\nFormat profile                   : LC\nCodec ID                         : 40\nDuration                         : 42mn 34s\nBit rate mode                    : Variable\nBit rate                         : 384 Kbps\nMaximum bit rate                 : 807 Kbps\nChannel(s)                       : 6 channels\nChannel positions                : Front: L C R, Side: L R, LFE\nSampling rate                    : 48.0 KHz\nCompression mode                 : Lossy\nStream size                      : 117 MiB (19%)\nLanguage                         : English\nEncoded date                     : UTC 2015-10-14 10:34:28\nTagged date                      : UTC 2015-10-14 11:45:18\n\nText\nID                               : 3\nFormat                           : Timed text\nMuxing mode                      : sbtl\nCodec ID                         : tx3g\nDuration                         : 42mn 6s\nBit rate mode                    : Variable\nBit rate                         : 57 bps\nStream size                      : 17.6 KiB (0%)\nLanguage                         : English\nEncoded date                     : UTC 2015-10-14 10:34:28\nTagged date                      : UTC 2015-10-14 11:44:45","torrent":{"xt":"urn:btih:a1599bf5811898e9267d8ec5930bcb6d416ec119","amp;dn":"Z-Nation+-+Season+02+-+Episode+02+-+White+Light+%7E+720P+%7C%7C+AAC+%7C%7C","amp;tr":["udp%3A%2F%2Ftracker.leechers-paradise.org%3A6969","udp%3A%2F%2Fzer0day.ch%3A1337","udp%3A%2F%2Fopen.demonii.com%3A1337","udp%3A%2F%2Ftracker.coppersurfer.tk%3A6969","udp%3A%2F%2Fexodus.desync.com%3A6969"],"infoHash":"a1599bf5811898e9267d8ec5930bcb6d416ec119","infoHashBuffer":{"type":"Buffer","data":[161,89,155,245,129,24,152,233,38,125,142,197,147,11,203,109,65,110,193,25]},"announce":[],"urlList":[]}}